# xmcd CD database file
# Copyright (C) 1993-1998 Ti Kan
# 
# Track frame offsets:
#     183
#     10720
#     25268
#     38918
#     54158
#     64900
#     80120
#     93238
#     104030
#     115203
#     127358
#     138578
#     152035
#     163503
#     176868
#     188198
#     202125
#     214983
#     229213
#     242635
#     254275
#     267018
#     281035
#     293948
#     307100
#     321085
# 
# Disc length: 4474 seconds
# 
# Revision: 1
# Processed by: cddbd v1.4b41PL1 Copyright (c) Steve Scherf et al.
# Submitted via: DiscPlay 4.0.4
# 
DISCID=9011781a
DTITLE=Ann Peebles - Greatest Hits
DYEAR=1900
DGENRE=
TTITLE0=99 Lbs
TTITLE1=Walk Away
TTITLE2=Give Me Some Credit
TTITLE3=Heartaches, Heartaches
TTITLE4=Somebody's On Your Case
TTITLE5=I Still Love You
TTITLE6=Part Time Love
TTITLE7=Generation Gap Between Us
TTITLE8=Slipped, Tripped And Fell In Love
TTITLE9=Trouble, Heartaches And Sadness
TTITLE10=I Feel Like Breaking Up Somebody's Home
TTITLE11=I Pitty The Fool
TTITLE12=Do I Need You
TTITLE13=One Way Street
TTITLE14=I Can't Stand The Rain
TTITLE15=Beware
TTITLE16=A Love Vibration
TTITLE17=Doctor Love Power
TTITLE18=It Was Jealousy
TTITLE19=Being Here With You
TTITLE20=I'm Gonna Tear Your Playhouse Down
TTITLE21=When I'm In Your Armes
TTITLE22=A Good Day For Lovin'
TTITLE23=Come To Mama
TTITLE24=Old Man With Young ideas
TTITLE25=If This is Heaven
EXTD=
EXTT0=
EXTT1=
EXTT2=
EXTT3=
EXTT4=
EXTT5=
EXTT6=
EXTT7=
EXTT8=
EXTT9=
EXTT10=
EXTT11=
EXTT12=
EXTT13=
EXTT14=
EXTT15=
EXTT16=
EXTT17=
EXTT18=
EXTT19=
EXTT20=
EXTT21=
EXTT22=
EXTT23=
EXTT24=
EXTT25=
PLAYORDER=
